<?xml version="1.0" standalone="no"?>
<!DOCTYPE svg PUBLIC "-//W3C//DTD SVG 20010904//EN"
 "http://www.w3.org/TR/2001/REC-SVG-20010904/DTD/svg10.dtd">
<svg version="1.0" xmlns="http://www.w3.org/2000/svg"
 width="1501.000000pt" height="1501.000000pt" viewBox="0 0 1501.000000 1501.000000"
 preserveAspectRatio="xMidYMid meet">

<g transform="translate(0.000000,1501.000000) scale(0.100000,-0.100000)"
fill="#000000" stroke="none">
<path d="M8470 13326 l0 -125 -121 -3 -121 -3 0 -115 0 -115 111 -3 111 -3 0
-127 -1 -127 -477 -486 c-262 -267 -664 -676 -892 -908 l-415 -423 35 -30 c19
-16 86 -67 147 -114 l113 -86 148 51 c82 28 153 51 159 51 7 0 13 -88 17 -247
3 -137 9 -339 12 -450 l6 -203 -96 0 -96 0 0 -170 0 -170 99 0 98 0 7 -412 c4
-227 9 -444 11 -481 3 -37 5 -163 6 -280 l1 -212 -179 -63 c-98 -35 -194 -69
-213 -76 -35 -13 -35 -14 -35 -72 0 -32 3 -120 8 -194 l7 -136 -142 -66 c-79
-37 -280 -133 -448 -213 -168 -81 -379 -182 -470 -225 -91 -43 -289 -137 -440
-210 -151 -72 -333 -159 -405 -192 -71 -34 -136 -65 -142 -71 -10 -7 -13 -54
-13 -173 l0 -164 113 0 c119 0 415 8 1597 40 195 5 450 12 565 15 116 3 444
12 730 20 286 8 648 17 805 20 157 3 351 10 433 17 l147 12 0 708 c0 668 1
708 18 708 9 0 184 0 387 1 493 0 611 13 753 79 91 42 134 80 167 147 25 48
31 73 33 146 6 140 -36 225 -146 296 -53 34 -163 74 -233 86 -77 13 -75 20 17
55 146 57 253 154 270 246 11 58 -1 176 -21 219 -27 55 -104 129 -167 158 -91
43 -139 47 -505 47 -200 0 -343 4 -337 9 5 5 32 16 61 25 70 23 186 106 228
164 58 80 80 152 80 267 0 92 -3 106 -32 167 -65 137 -170 204 -423 268 -325
82 -406 119 -447 200 -76 148 39 316 229 336 216 22 407 -146 502 -438 4 -14
16 -18 51 -18 l46 0 -6 253 c-4 138 -8 262 -11 275 -3 17 -11 22 -34 22 -25 0
-34 -8 -64 -62 -57 -100 -49 -95 -93 -61 -81 64 -241 123 -334 123 -21 0 -41
5 -44 11 -4 6 -11 326 -16 712 l-9 702 -250 250 -250 250 -2 345 -3 345 -97 3
-98 3 0 -125z m293 -2194 c116 -58 203 -174 223 -300 6 -37 5 -39 -37 -58 -62
-27 -160 -128 -192 -196 -37 -78 -52 -188 -38 -272 15 -85 34 -128 79 -178 86
-95 204 -147 495 -213 273 -63 347 -119 347 -265 0 -180 -165 -287 -403 -260
-194 22 -327 140 -421 374 l-32 79 -40 0 -39 0 -3 -276 -2 -277 38 0 c35 0 42
5 92 70 30 39 58 70 62 70 4 0 35 -18 68 -39 59 -38 166 -81 202 -81 15 0 18
-8 18 -49 l0 -49 88 -4 c56 -2 95 -8 105 -17 16 -12 17 -68 17 -620 0 -696 6
-651 -85 -651 l-55 0 -2 258 -3 257 -527 3 -528 2 0 540 0 540 90 0 90 0 0
170 0 170 -90 0 -90 0 0 490 c0 456 1 494 19 545 43 122 134 214 253 257 41
14 74 18 144 15 79 -2 100 -7 157 -35z m1274 -1947 c106 -32 146 -97 147 -239
1 -161 -43 -245 -150 -286 -46 -17 -78 -20 -194 -20 l-140 0 0 249 c0 137 4
261 10 275 6 16 22 29 42 35 45 14 221 6 285 -14z m44 -669 c95 -35 161 -118
178 -223 27 -174 -40 -310 -176 -359 -42 -15 -329 -20 -351 -6 -26 17 -32 84
-32 346 l0 268 168 -5 c122 -3 179 -9 213 -21z"/>
<path d="M3930 5731 c-71 -23 -130 -72 -149 -124 -17 -44 -13 -137 8 -183 31
-69 119 -118 254 -143 103 -19 135 -31 156 -58 30 -37 27 -86 -8 -125 -24 -28
-36 -32 -90 -36 -86 -6 -138 15 -199 83 -27 30 -58 75 -68 100 -16 39 -23 45
-44 43 -14 -2 -24 -6 -22 -10 1 -5 2 -66 2 -138 l0 -130 27 0 c15 0 38 11 53
25 l27 25 59 -27 c80 -37 204 -39 277 -4 138 67 171 250 63 357 -44 45 -97 65
-259 99 -98 21 -137 50 -137 104 0 77 90 119 192 91 52 -15 132 -91 164 -156
21 -44 31 -54 48 -52 20 3 21 7 18 118 -2 63 -6 123 -8 133 -7 24 -35 21 -65
-7 l-27 -25 -43 22 c-46 23 -182 34 -229 18z"/>
<path d="M8903 5733 c-38 -4 -43 -7 -43 -28 0 -20 6 -24 38 -27 l37 -3 3 -302
2 -303 -35 0 c-32 0 -35 -2 -35 -30 l0 -30 150 0 150 0 0 30 c0 28 -3 30 -35
30 l-35 0 0 335 0 335 -77 -2 c-43 -1 -97 -3 -120 -5z"/>
<path d="M5952 5703 c3 -26 7 -28 48 -31 24 -2 48 -9 52 -15 12 -19 10 -545
-2 -568 -8 -14 -21 -19 -56 -19 -44 0 -45 -1 -42 -27 l3 -28 205 -3 c317 -4
416 15 474 90 48 64 43 159 -11 210 -32 31 -114 68 -149 68 -13 0 -24 5 -24
10 0 6 10 10 23 10 37 0 121 47 140 79 10 17 17 50 17 78 0 67 -33 113 -102
144 -51 23 -64 24 -316 27 l-263 4 3 -29z m467 -57 c32 -29 43 -83 28 -140
-17 -69 -46 -88 -143 -94 l-77 -5 5 114 c8 156 5 152 94 147 53 -2 78 -8 93
-22z m-2 -316 c38 -23 51 -46 59 -102 14 -101 -55 -162 -173 -156 -70 4 -71 6
-72 166 l-1 112 78 0 c59 0 85 -5 109 -20z"/>
<path d="M7987 5621 c-20 -73 -56 -117 -108 -132 -31 -10 -39 -17 -39 -36 0
-20 5 -23 35 -23 l35 0 0 -152 c0 -84 5 -169 10 -189 15 -53 50 -81 109 -87
97 -9 162 36 186 128 16 61 13 70 -20 70 -19 0 -26 -7 -30 -27 -14 -68 -51
-107 -79 -84 -13 11 -16 40 -16 177 l0 164 60 0 c57 0 60 1 60 25 0 24 -3 25
-60 25 l-60 0 0 100 0 100 -33 0 c-33 0 -34 -2 -50 -59z"/>
<path d="M4597 5489 c-103 -15 -157 -56 -157 -121 0 -79 119 -104 152 -33 10
21 9 31 -5 54 -15 25 -15 30 -2 41 8 6 36 12 62 12 62 0 83 -24 83 -93 0 -53
8 -48 -92 -69 -179 -38 -251 -106 -218 -205 26 -78 167 -99 283 -42 45 23 53
24 60 11 11 -19 67 -44 98 -44 55 0 119 58 99 89 -6 10 -12 10 -29 2 -12 -7
-26 -9 -31 -6 -6 4 -10 61 -10 134 0 156 -5 183 -40 220 -40 44 -146 65 -253
50z m131 -305 c-4 -58 -8 -70 -32 -90 -53 -46 -116 -21 -116 46 0 45 30 76 91
95 24 8 48 14 53 14 4 1 6 -29 4 -65z"/>
<path d="M5385 5494 c-6 -1 -27 -5 -48 -9 -21 -3 -53 -20 -72 -37 l-35 -30 0
31 0 31 -97 0 c-54 0 -108 -3 -120 -6 -30 -8 -31 -44 -2 -44 11 0 29 -5 40
-10 18 -10 19 -23 19 -180 l0 -170 -35 0 c-32 0 -35 -2 -35 -30 l0 -30 145 0
145 0 0 30 c0 27 -3 30 -30 30 l-30 0 0 121 c0 136 13 180 61 204 39 21 56 19
84 -10 24 -23 25 -28 25 -169 l0 -145 -32 -3 c-28 -2 -33 -7 -33 -28 l0 -25
145 0 145 0 3 28 c3 25 1 27 -31 27 -23 0 -37 6 -41 16 -3 9 -6 82 -6 162 0
128 -3 151 -20 179 -10 17 -29 37 -42 44 -24 13 -87 27 -103 23z"/>
<path d="M6933 5489 c-100 -12 -163 -59 -163 -121 0 -34 39 -78 69 -78 65 0
103 47 81 100 -17 41 -4 53 55 53 29 0 52 -6 65 -18 21 -19 38 -101 23 -116
-4 -4 -53 -20 -107 -33 -118 -30 -178 -63 -200 -110 -20 -42 -20 -69 -1 -105
19 -38 67 -56 150 -56 56 0 81 5 125 27 53 26 55 27 75 9 50 -45 101 -53 152
-22 34 21 51 57 34 74 -7 7 -15 6 -27 -4 -14 -11 -18 -11 -30 6 -10 14 -14 54
-14 154 0 119 -3 140 -20 169 -37 60 -135 86 -267 71z m132 -250 c4 -6 4 -35
0 -64 -8 -65 -42 -105 -88 -105 -42 0 -67 26 -67 68 0 52 59 99 142 111 4 1
10 -4 13 -10z"/>
<path d="M7672 5489 c-40 -8 -66 -31 -104 -88 l-28 -45 0 62 0 62 -87 0 c-49
0 -98 -3 -110 -6 -31 -9 -31 -44 0 -44 12 0 33 -7 45 -16 21 -14 22 -22 22
-164 0 -81 -3 -155 -6 -164 -4 -10 -18 -16 -41 -16 -32 0 -34 -2 -31 -27 l3
-28 160 0 160 0 3 28 c3 26 2 27 -49 27 l-52 0 5 110 c5 95 9 118 34 167 16
31 39 63 51 71 21 13 22 13 16 -21 -4 -29 -1 -40 20 -61 35 -35 71 -33 108 3
73 73 -7 174 -119 150z"/>
<path d="M8495 5489 c-134 -17 -219 -112 -218 -244 1 -103 42 -168 131 -212
46 -23 70 -28 132 -28 41 0 92 6 114 14 51 18 115 76 137 126 21 46 25 135 8
186 -38 112 -161 176 -304 158z m126 -103 c27 -59 27 -227 0 -276 -37 -70
-100 -77 -145 -17 -19 25 -21 42 -21 150 0 105 3 127 20 157 38 64 114 57 146
-14z"/>
<path d="M9441 5488 c-65 -10 -131 -46 -165 -91 -30 -39 -56 -111 -56 -154 0
-49 42 -134 87 -174 53 -48 101 -64 193 -64 101 1 175 35 222 103 28 40 33 58
36 119 2 39 -1 88 -8 107 -36 109 -168 175 -309 154z m124 -89 c17 -29 20 -52
20 -156 0 -108 -2 -125 -21 -150 -46 -62 -112 -53 -148 21 -27 54 -27 215 -1
270 34 71 112 79 150 15z"/>
<path d="M10160 5490 c-41 -7 -71 -22 -90 -44 -19 -23 -28 -19 -22 9 l4 25
-98 0 c-118 0 -144 -6 -144 -31 0 -14 7 -19 25 -19 14 0 34 -9 45 -20 18 -18
20 -33 20 -164 0 -79 -3 -151 -6 -160 -4 -10 -18 -16 -41 -16 -32 0 -34 -2
-31 -27 l3 -28 140 0 140 0 0 25 c0 17 -7 26 -25 30 -25 6 -25 8 -28 120 -4
143 7 185 53 207 31 15 36 15 59 -1 l26 -16 0 -155 0 -155 -26 0 c-22 0 -25
-4 -22 -27 l3 -28 128 -3 127 -3 0 31 c0 26 -4 30 -26 30 l-26 0 4 139 c3 139
3 140 32 170 36 37 59 39 92 6 24 -24 25 -27 22 -167 l-3 -143 -28 -3 c-24 -3
-28 -7 -25 -30 l3 -27 140 0 140 0 3 27 c3 24 0 27 -35 30 l-38 3 -5 160 c-5
170 -14 204 -64 235 -60 38 -163 26 -218 -26 l-28 -28 -16 22 c-29 41 -98 63
-164 52z"/>
<path d="M10999 5490 c-162 -27 -262 -187 -204 -327 45 -107 129 -158 260
-158 70 0 86 4 128 28 42 25 97 90 97 116 0 16 -44 25 -49 10 -2 -7 -20 -30
-40 -51 -30 -32 -44 -40 -86 -44 -83 -9 -139 39 -151 129 l-7 47 173 0 173 0
-7 43 c-16 104 -86 189 -166 202 -68 12 -75 12 -121 5z m112 -84 c13 -20 18
-45 17 -71 l-3 -40 -89 -3 -89 -3 7 43 c16 105 111 150 157 74z"/>
<path d="M2536 4728 c-13 -29 -54 -123 -89 -208 -129 -309 -148 -349 -184
-380 -18 -17 -40 -30 -48 -30 -10 0 -15 -10 -15 -30 l0 -30 140 0 140 0 0 25
c0 20 -7 26 -39 35 -51 14 -64 46 -44 113 l14 48 125 -3 126 -3 19 -50 c32
-85 24 -115 -32 -115 -14 0 -19 -7 -19 -25 l0 -25 180 0 180 0 0 24 c0 19 -7
26 -29 31 -16 3 -37 15 -47 26 -16 17 -86 180 -237 546 l-42 103 -37 0 c-35 0
-39 -3 -62 -52z m53 -278 c22 -61 41 -113 41 -115 0 -3 -43 -5 -95 -5 -52 0
-95 1 -95 3 0 1 20 52 45 111 25 60 45 111 45 113 0 2 4 3 9 3 5 0 27 -50 50
-110z"/>
<path d="M9143 4773 c-16 -3 -23 -11 -23 -29 0 -18 5 -24 23 -24 48 0 48 2 48
-306 0 -159 -1 -295 -1 -301 0 -8 -14 -13 -35 -13 -31 0 -35 -3 -35 -25 l0
-25 155 0 155 0 0 24 c0 21 -5 25 -37 28 l-38 3 -3 338 -2 337 -93 -1 c-50 -1
-102 -4 -114 -6z"/>
<path d="M9488 4773 c-11 -3 -18 -14 -18 -29 0 -18 5 -24 23 -24 52 -1 52 2
55 -297 2 -153 0 -288 -3 -300 -4 -18 -12 -23 -40 -23 -31 0 -35 -3 -35 -25
l0 -25 150 0 150 0 0 25 c0 21 -5 25 -29 25 -33 0 -41 14 -41 74 0 32 6 48 24
65 l24 22 55 -67 c43 -52 54 -71 45 -81 -6 -7 -19 -13 -29 -13 -14 0 -19 -7
-19 -25 l0 -25 155 0 155 0 0 25 c0 18 -5 25 -20 25 -14 0 -52 40 -120 126
-55 69 -100 129 -100 133 0 10 85 80 118 97 15 7 39 14 55 14 22 0 27 4 27 25
l0 25 -145 0 -145 0 0 -24 c0 -19 6 -25 26 -28 15 -2 32 -11 38 -21 9 -16 0
-28 -64 -87 l-75 -68 -3 244 -2 244 -98 -1 c-53 -1 -105 -3 -114 -6z"/>
<path d="M8373 4753 c-10 -24 6 -43 36 -43 64 0 61 16 61 -301 0 -275 -1 -289
-19 -299 -11 -5 -33 -10 -50 -10 -26 0 -31 -4 -31 -25 l0 -25 334 0 334 0 6
23 c3 12 6 70 6 129 0 99 -1 107 -21 113 -25 8 -20 13 -54 -63 -37 -83 -86
-127 -161 -142 -69 -15 -134 -8 -151 16 -9 12 -13 57 -13 146 l0 128 33 -7
c64 -12 117 -72 117 -133 0 -16 7 -20 30 -20 l30 0 -2 173 c-3 170 -3 172 -25
175 -17 3 -25 -3 -33 -25 -28 -75 -68 -113 -122 -113 l-28 0 0 110 c0 97 2
112 20 130 42 42 192 16 249 -42 17 -18 41 -58 53 -90 17 -49 25 -58 45 -58
l24 0 -3 130 -3 131 -329 2 c-255 2 -330 -1 -333 -10z"/>
<path d="M4955 4708 c-31 -102 -42 -127 -66 -150 -15 -16 -41 -31 -58 -34 -26
-6 -31 -11 -31 -35 0 -25 4 -29 29 -29 l29 0 4 -167 c6 -227 20 -253 147 -253
44 0 66 6 92 23 39 26 71 87 73 137 1 31 -2 35 -23 35 -19 0 -26 -8 -36 -43
-7 -23 -19 -49 -25 -57 -16 -20 -56 -19 -64 1 -3 9 -6 85 -6 170 l0 154 65 0
65 0 0 30 0 30 -65 0 -65 0 0 100 0 100 -30 0 c-17 0 -32 -6 -35 -12z"/>
<path d="M11407 4713 c-4 -3 -7 -15 -7 -25 0 -11 -9 -41 -21 -67 -21 -50 -62
-88 -108 -100 -19 -6 -26 -14 -26 -32 0 -21 5 -24 38 -27 l37 -3 0 -165 c0
-235 16 -261 155 -252 51 3 70 9 91 28 34 32 54 79 54 130 0 36 -3 40 -24 40
-20 0 -25 -6 -30 -45 -5 -31 -15 -51 -34 -65 l-27 -21 -17 21 c-16 19 -18 44
-18 176 l0 154 65 0 65 0 0 30 0 30 -65 0 -65 0 0 100 0 100 -28 0 c-16 0 -32
-3 -35 -7z"/>
<path d="M4367 4510 c-108 -42 -161 -116 -160 -225 0 -149 102 -245 259 -245
125 0 209 45 250 134 46 98 28 204 -45 277 -75 76 -200 100 -304 59z m145 -41
c37 -20 58 -85 58 -185 0 -131 -33 -197 -100 -197 -63 0 -91 60 -92 192 -1 95
15 154 49 180 29 23 54 26 85 10z"/>
<path d="M5360 4511 c-91 -32 -124 -97 -79 -155 16 -20 29 -26 58 -26 64 0 99
51 69 101 -11 17 -10 22 6 35 29 21 92 18 116 -6 15 -15 20 -33 20 -73 l0 -54
-82 -17 c-95 -20 -163 -47 -195 -78 -56 -52 -46 -149 17 -180 57 -29 164 -24
232 10 l55 27 27 -27 c38 -39 111 -40 155 -2 17 14 31 35 31 46 0 18 -4 19
-34 14 -26 -5 -35 -3 -40 10 -3 8 -6 74 -6 146 0 160 -11 191 -79 221 -67 30
-198 34 -271 8z m190 -290 c0 -77 -28 -115 -84 -115 -45 0 -56 11 -63 61 -4
32 -1 43 20 63 25 25 77 48 110 49 14 1 17 -8 17 -58z"/>
<path d="M6131 4513 c-19 -9 -47 -37 -62 -62 l-29 -45 0 58 0 58 -72 -5 c-40
-4 -90 -6 -110 -7 -34 0 -38 -3 -38 -25 0 -21 5 -25 30 -25 24 0 33 -6 40 -26
13 -34 13 -290 0 -315 -7 -12 -21 -19 -40 -19 -25 0 -30 -4 -30 -25 l0 -25
165 0 165 0 0 24 c0 23 -5 25 -47 28 l-48 3 1 95 c1 110 22 195 58 233 33 35
44 34 38 -4 -10 -69 81 -106 133 -54 14 13 25 35 25 49 0 87 -91 132 -179 89z"/>
<path d="M6641 4513 c-19 -9 -47 -37 -62 -62 l-29 -45 0 58 0 58 -72 -5 c-40
-4 -90 -6 -110 -7 -34 0 -38 -3 -38 -25 0 -21 5 -25 28 -25 49 0 52 -12 52
-180 0 -168 -3 -180 -52 -180 -23 0 -28 -4 -28 -25 l0 -25 165 0 165 0 0 25
c0 22 -4 25 -39 25 -57 0 -65 15 -58 118 8 128 44 212 105 247 11 6 12 3 3
-14 -24 -45 15 -101 71 -101 39 0 81 40 81 78 0 84 -94 128 -182 85z"/>
<path d="M7022 4512 c-106 -38 -161 -116 -162 -228 0 -111 67 -202 171 -233
58 -17 168 -13 215 8 41 19 98 79 107 112 3 13 -2 23 -15 30 -17 9 -23 8 -31
-7 -6 -11 -27 -36 -47 -56 -35 -35 -42 -38 -93 -38 -45 0 -61 5 -86 26 -31 25
-51 76 -51 127 l0 27 165 0 165 0 0 23 c0 37 -26 113 -50 147 -50 70 -184 99
-288 62z m152 -55 c28 -29 44 -101 26 -122 -9 -11 -34 -15 -91 -15 -75 0 -79
1 -79 23 0 106 85 173 144 114z"/>
<path d="M7725 4511 c-22 -10 -46 -25 -54 -34 -20 -25 -31 -20 -31 14 l0 32
-67 -6 c-38 -4 -89 -7 -115 -7 -44 0 -48 -2 -48 -25 0 -21 5 -25 29 -25 48 0
52 -13 49 -191 l-3 -164 -32 -3 c-27 -3 -33 -7 -33 -28 l0 -24 145 0 145 0 0
25 c0 21 -5 25 -30 25 -39 0 -44 22 -38 154 8 141 33 186 106 186 56 0 67 -26
70 -177 4 -144 -1 -163 -44 -163 -19 0 -24 -5 -24 -25 l0 -25 150 0 150 0 0
25 c0 22 -4 25 -35 25 -43 0 -44 1 -47 192 -3 130 -5 150 -24 175 -45 61 -140
80 -219 44z"/>
<path d="M10305 4521 c-94 -24 -144 -77 -129 -136 20 -79 154 -71 154 9 0 17
-6 38 -12 45 -19 18 16 41 64 41 59 0 90 -36 86 -97 -3 -43 -6 -48 -33 -54
-188 -45 -230 -61 -264 -105 -26 -32 -28 -104 -5 -139 21 -32 63 -45 144 -45
54 0 78 6 123 28 l55 28 31 -28 c63 -56 181 -24 181 49 0 11 -7 14 -26 9 -48
-13 -54 4 -54 156 0 162 -8 186 -73 219 -45 24 -185 35 -242 20z m163 -301
c-5 -67 -30 -103 -80 -115 -41 -10 -83 34 -74 78 8 40 32 64 82 82 72 26 77
23 72 -45z"/>
<path d="M11036 4508 c-23 -13 -48 -40 -60 -63 l-21 -40 -3 59 -3 59 -67 -7
c-37 -3 -86 -6 -109 -6 -39 0 -43 -2 -43 -25 0 -21 5 -25 30 -25 19 0 33 -7
40 -19 11 -21 14 -298 4 -325 -4 -10 -18 -16 -40 -16 -30 0 -34 -3 -34 -25 l0
-25 165 0 165 0 0 25 c0 23 -4 25 -44 25 -57 0 -59 8 -47 137 10 105 28 163
63 200 29 31 34 29 35 -14 1 -46 31 -73 78 -73 67 0 99 91 52 146 -33 38 -107
44 -161 12z"/>
<path d="M11846 4514 c-64 -20 -140 -95 -156 -155 -36 -132 28 -261 152 -305
54 -19 169 -18 216 2 45 18 97 67 113 106 13 32 13 33 -18 42 -16 5 -23 2 -28
-13 -3 -11 -24 -36 -45 -55 -35 -31 -47 -36 -90 -36 -29 0 -61 7 -75 16 -33
22 -63 75 -67 121 l-3 38 169 3 169 2 -6 50 c-7 56 -34 115 -69 147 -54 51
-166 66 -262 37z m144 -52 c27 -21 46 -108 29 -129 -8 -9 -36 -13 -90 -13
l-79 0 0 33 c0 93 82 156 140 109z"/>
<path d="M12382 4512 c-61 -22 -87 -43 -101 -83 -8 -23 -6 -34 13 -61 19 -29
27 -33 65 -33 36 0 48 5 64 27 18 25 19 28 3 59 -22 43 -10 54 60 54 69 0 84
-17 84 -90 l0 -52 -80 -16 c-207 -42 -293 -139 -211 -237 l29 -35 98 0 c88 0
104 3 143 26 l43 25 28 -28 c24 -23 37 -28 80 -28 44 0 56 4 81 29 42 42 39
63 -8 59 l-38 -3 -5 150 c-6 173 -13 195 -77 226 -64 31 -199 36 -271 11z
m188 -283 c0 -90 -56 -146 -117 -117 -24 11 -28 20 -31 60 -3 41 0 48 25 66
31 21 78 40 106 41 14 1 17 -8 17 -50z"/>
<path d="M3053 4513 c-70 -4 -73 -5 -73 -28 0 -21 5 -25 29 -25 16 0 33 -6 39
-12 6 -7 12 -80 14 -163 3 -134 5 -154 25 -186 29 -45 59 -59 134 -59 65 0
101 14 138 54 33 35 41 33 41 -10 l0 -37 61 7 c34 3 86 6 115 6 51 0 54 1 54
25 0 22 -4 25 -35 25 -24 0 -37 6 -45 20 -7 13 -10 89 -10 201 1 99 0 183 -3
185 -2 3 -54 1 -116 -2 -108 -7 -111 -8 -111 -31 0 -19 5 -23 29 -23 47 0 53
-17 49 -144 -2 -97 -6 -119 -24 -143 -50 -67 -124 -64 -144 6 -5 20 -10 105
-10 189 l0 152 -42 -2 c-24 -1 -76 -4 -115 -5z"/>
<path d="M3699 4445 c-1 -41 -2 -81 -3 -87 -1 -7 9 -14 21 -16 18 -3 26 6 44
48 28 66 50 80 121 80 32 0 58 -2 58 -5 0 -2 -58 -84 -130 -182 -91 -125 -130
-186 -130 -205 l0 -28 219 0 219 0 6 31 c3 17 6 60 6 95 0 58 -2 64 -20 64
-15 0 -26 -13 -40 -45 -32 -74 -62 -95 -136 -95 -35 0 -64 2 -64 5 0 3 33 50
73 103 133 177 187 259 187 286 l0 26 -215 0 -215 0 -1 -75z"/>
<path d="M2823 3288 c-186 -471 -205 -508 -260 -508 -19 0 -24 -5 -21 -21 3
-19 9 -20 128 -20 114 0 125 1 125 18 0 13 -10 19 -37 24 -75 12 -83 43 -38
148 l22 51 133 0 c94 0 135 -4 142 -12 5 -7 22 -48 38 -92 31 -88 29 -96 -38
-96 -33 0 -38 -3 -35 -21 3 -19 9 -20 143 -20 134 0 140 1 143 20 3 17 -2 21
-26 21 -20 0 -34 7 -44 23 -13 20 -60 135 -149 367 -106 274 -115 295 -135
298 -16 2 -30 -25 -91 -180z m76 -15 c7 -21 30 -78 51 -128 63 -150 71 -135
-70 -135 -121 0 -121 0 -114 23 19 62 107 277 113 277 4 0 13 -17 20 -37z"/>
<path d="M6568 3458 c-8 -7 -43 -51 -78 -96 -78 -105 -71 -126 22 -57 81 61
128 106 128 120 0 14 -32 45 -46 45 -6 0 -17 -6 -26 -12z"/>
<path d="M7955 3451 c-50 -8 -56 -34 -8 -39 17 -2 37 -9 43 -17 7 -8 12 -63
13 -139 2 -115 -4 -150 -19 -111 -10 26 -69 55 -113 55 -136 0 -226 -170 -177
-333 26 -88 93 -147 167 -147 40 0 94 26 118 56 24 31 29 30 38 -7 l9 -31 74
0 c69 0 75 2 78 21 3 17 -2 21 -25 21 -60 0 -58 -11 -61 350 l-3 330 -47 -1
c-26 -1 -65 -5 -87 -8z m-27 -311 c97 -59 98 -305 1 -355 -46 -24 -78 -19
-115 20 -38 40 -51 107 -40 207 7 68 26 107 64 130 36 22 51 21 90 -2z"/>
<path d="M8960 3430 c0 -15 7 -20 28 -20 40 0 64 -31 105 -135 129 -329 211
-532 219 -542 28 -35 34 -24 205 427 76 201 105 250 150 250 16 0 23 6 23 20
0 19 -7 20 -131 20 -119 0 -130 -2 -127 -17 2 -13 16 -20 46 -24 44 -6 62 -20
62 -51 0 -9 -30 -95 -66 -190 -36 -95 -75 -199 -87 -230 -20 -53 -37 -74 -37
-47 0 6 -43 119 -96 250 -53 132 -93 246 -90 254 4 11 21 15 56 15 43 0 50 3
50 20 0 19 -7 20 -155 20 -148 0 -155 -1 -155 -20z"/>
<path d="M4777 3422 c-24 -26 -21 -59 7 -77 21 -14 28 -14 46 -3 32 20 37 58
10 80 -28 23 -43 23 -63 0z"/>
<path d="M6077 3422 c-24 -26 -21 -59 7 -77 19 -13 29 -14 45 -5 30 16 32 66
3 88 -22 17 -36 15 -55 -6z"/>
<path d="M10740 3420 c-26 -26 -25 -44 2 -70 26 -24 28 -24 56 -4 27 18 29 55
4 77 -24 22 -38 21 -62 -3z"/>
<path d="M3392 3180 c-41 -25 -72 -76 -72 -118 0 -78 52 -120 182 -147 40 -9
82 -22 95 -30 52 -34 32 -96 -36 -115 -82 -22 -159 18 -196 101 -12 26 -25 39
-37 39 -18 0 -19 -5 -13 -82 4 -46 11 -87 16 -92 5 -6 18 -1 32 12 l24 23 44
-26 c74 -42 154 -29 213 33 55 59 43 162 -23 196 -16 9 -67 23 -115 32 -95 19
-126 39 -126 84 0 40 40 70 94 70 61 0 103 -32 132 -102 9 -21 23 -38 31 -38
13 0 15 9 9 53 -3 28 -6 67 -6 85 0 36 -22 44 -39 15 -9 -16 -12 -16 -49 5
-50 28 -116 29 -160 2z"/>
<path d="M3875 3183 c-48 -25 -76 -55 -101 -108 -73 -154 28 -355 178 -355 84
0 155 42 195 115 24 42 28 62 28 125 0 65 -4 83 -30 129 -42 77 -98 111 -179
111 -36 -1 -74 -7 -91 -17z m148 -43 c43 -34 61 -97 55 -199 -7 -110 -26 -150
-84 -170 -50 -17 -87 -3 -120 47 -29 42 -40 144 -25 220 21 105 106 155 174
102z"/>
<path d="M4369 3177 c-114 -61 -161 -225 -99 -347 23 -45 44 -64 100 -89 99
-45 203 -13 249 76 15 29 14 40 -3 46 -9 4 -22 -7 -35 -28 -42 -72 -136 -85
-194 -27 -75 75 -65 269 16 334 26 21 95 23 120 4 17 -13 17 -17 4 -43 -23
-44 -6 -73 44 -73 33 0 52 22 52 61 0 32 -32 72 -75 95 -43 22 -128 18 -179
-9z"/>
<path d="M5130 3189 c-104 -42 -137 -159 -45 -159 42 0 60 26 45 65 -14 37
-13 40 15 53 59 27 147 3 159 -42 3 -12 6 -38 6 -58 0 -30 -4 -38 -18 -38 -78
0 -233 -68 -262 -115 -56 -91 4 -175 123 -175 46 0 63 6 107 35 l52 35 32 -35
c39 -41 79 -46 120 -14 31 24 25 43 -11 34 -48 -12 -53 4 -53 173 0 175 -10
205 -74 236 -38 18 -155 21 -196 5z m180 -266 c0 -90 -54 -155 -130 -157 -33
0 -46 4 -61 23 -51 63 5 143 118 170 71 17 73 16 73 -36z"/>
<path d="M5675 3183 c-81 -42 -126 -115 -133 -214 -4 -53 0 -75 17 -114 28
-63 45 -82 105 -112 95 -48 202 -19 246 67 24 47 24 46 6 53 -10 4 -23 -7 -36
-29 -58 -93 -182 -80 -226 23 -17 40 -18 152 -2 205 16 53 68 98 115 98 52 0
74 -23 60 -61 -15 -37 0 -63 37 -67 83 -10 72 109 -14 153 -38 20 -137 19
-175 -2z"/>
<path d="M6394 3168 c-70 -48 -99 -109 -98 -208 0 -111 46 -190 131 -225 82
-34 196 0 247 74 82 118 45 305 -73 368 -68 36 -145 32 -207 -9z m184 -41 c44
-45 61 -130 45 -223 -13 -76 -31 -107 -75 -130 -26 -13 -38 -14 -70 -5 -44 13
-62 36 -83 107 -28 92 -10 202 42 256 40 42 98 39 141 -5z"/>
<path d="M6800 3180 c0 -13 7 -20 18 -20 10 0 28 -9 40 -20 21 -20 22 -29 22
-178 0 -171 -3 -182 -53 -182 -23 0 -28 -4 -25 -21 3 -19 9 -21 118 -21 105 1
115 2 115 19 0 12 -9 19 -25 21 -46 7 -50 17 -50 136 0 96 3 118 23 156 42 86
122 102 171 37 18 -25 21 -45 24 -163 4 -145 -1 -164 -45 -164 -22 0 -42 -24
-30 -36 3 -3 56 -5 119 -6 106 0 113 2 116 20 3 17 -3 21 -30 24 l-33 3 -5
160 c-5 147 -7 163 -28 192 -34 49 -61 63 -115 63 -57 0 -109 -22 -138 -58
-17 -22 -22 -24 -29 -12 -6 8 -10 27 -10 43 l0 27 -75 0 c-68 0 -75 -2 -75
-20z"/>
<path d="M8336 3168 c-115 -77 -139 -269 -48 -370 73 -81 161 -99 252 -53 43
22 100 83 100 107 0 19 -34 5 -58 -23 -49 -59 -130 -75 -190 -39 -37 23 -58
65 -64 125 l-3 40 162 3 161 2 -5 43 c-7 58 -44 126 -87 162 -31 25 -48 30
-104 33 -62 4 -70 2 -116 -30z m164 -28 c33 -23 55 -79 46 -116 -6 -24 -8 -24
-116 -24 l-110 0 6 28 c13 59 17 68 47 100 37 38 84 43 127 12z"/>
<path d="M9850 3189 c-36 -15 -89 -68 -112 -113 -15 -29 -20 -58 -20 -115 0
-88 9 -115 53 -165 66 -75 157 -96 244 -55 45 21 105 82 105 106 0 22 -27 14
-49 -13 -11 -14 -37 -34 -58 -45 -99 -51 -195 9 -205 127 l-3 39 161 3 161 2
-8 57 c-8 61 -43 121 -92 157 -31 23 -136 32 -177 15z m142 -58 c27 -24 32
-35 32 -77 l1 -49 -112 -3 -113 -3 7 33 c21 116 112 164 185 99z"/>
<path d="M10335 3179 c-53 -27 -102 -84 -116 -134 -17 -61 -12 -160 11 -204
24 -48 78 -95 125 -111 49 -16 130 -8 163 17 31 23 72 80 72 99 0 25 -19 15
-63 -31 -38 -39 -49 -45 -84 -45 -92 0 -149 85 -140 210 4 71 33 139 69 164
28 20 88 21 113 2 16 -12 17 -17 6 -44 -25 -60 30 -102 75 -57 28 28 29 34 10
80 -30 70 -156 98 -241 54z"/>
<path d="M10970 3181 c0 -13 9 -20 30 -25 20 -4 34 -14 40 -31 11 -28 14 -303
4 -329 -4 -10 -18 -16 -41 -16 -29 0 -34 -3 -31 -21 3 -19 9 -21 118 -21 109
0 115 2 118 21 3 17 -2 21 -27 21 -46 0 -54 25 -49 154 5 148 30 195 115 212
25 5 37 0 64 -24 l34 -30 0 -154 0 -153 -33 -3 c-27 -3 -33 -7 -30 -23 3 -19
11 -20 118 -21 106 -1 115 1 115 18 0 14 -9 20 -35 24 l-35 5 -5 155 c-6 172
-18 213 -69 243 -35 21 -112 22 -149 3 -15 -8 -38 -26 -51 -40 -30 -32 -41
-33 -41 -2 0 51 -7 56 -86 56 -66 0 -74 -2 -74 -19z"/>
<path d="M11668 3171 c-86 -55 -126 -166 -98 -279 39 -165 223 -226 343 -114
110 103 95 308 -29 392 -28 18 -53 25 -103 28 -59 3 -71 0 -113 -27z m174 -38
c44 -48 52 -73 51 -168 0 -73 -5 -99 -22 -133 -28 -55 -76 -79 -126 -62 -43
14 -62 36 -80 96 -30 100 -9 222 46 268 43 36 96 35 131 -1z"/>
<path d="M12158 3185 c-57 -31 -86 -125 -57 -188 16 -35 75 -65 165 -83 96
-20 112 -28 120 -59 15 -59 -63 -105 -146 -86 -51 11 -82 39 -110 97 -11 25
-27 44 -36 44 -13 0 -14 -11 -8 -82 3 -46 9 -87 11 -91 3 -5 15 1 28 13 l22
21 44 -26 c54 -31 115 -33 170 -5 58 30 81 72 76 138 -6 84 -45 109 -208 136
-49 9 -89 41 -89 72 0 39 45 74 94 74 58 0 100 -29 128 -89 36 -79 52 -68 45
30 -4 45 -9 84 -12 87 -3 3 -14 -3 -25 -13 -19 -17 -23 -17 -70 10 -32 19
-107 18 -142 0z"/>
<path d="M4718 3183 c-30 -3 -38 -9 -38 -24 0 -14 7 -19 30 -19 17 0 39 -9 50
-20 18 -18 20 -33 20 -168 0 -102 -4 -152 -12 -160 -7 -7 -29 -12 -51 -12 -33
0 -38 -3 -35 -21 3 -19 10 -20 133 -21 120 0 130 1 130 18 0 15 -9 20 -40 24
l-40 5 -3 203 -2 202 -53 -2 c-28 -1 -69 -3 -89 -5z"/>
<path d="M6015 3181 c-21 -4 -30 -12 -30 -26 0 -13 6 -19 16 -17 9 1 29 -2 43
-8 l26 -10 -2 -167 -3 -168 -40 -5 c-30 -4 -40 -9 -40 -23 0 -17 11 -18 130
-18 119 0 130 1 130 18 0 14 -10 19 -40 23 l-40 5 -5 200 -5 200 -55 2 c-30 0
-68 -2 -85 -6z"/>
<path d="M10680 3181 c-47 -8 -55 -41 -11 -41 18 0 40 -9 51 -20 18 -18 20
-33 20 -168 0 -163 -3 -172 -57 -172 -31 0 -55 -22 -40 -36 3 -3 63 -5 133 -5
122 -1 129 1 132 20 3 17 -3 20 -40 23 l-43 3 -3 203 -2 202 -53 -1 c-28 -1
-68 -4 -87 -8z"/>
<path d="M4312 2489 c-94 -29 -158 -169 -121 -266 26 -69 83 -104 243 -149
113 -32 140 -48 161 -95 22 -48 9 -91 -40 -139 -31 -30 -43 -35 -98 -38 -53
-3 -70 0 -117 25 -63 33 -114 98 -132 170 -7 29 -15 43 -25 41 -8 -2 -14 -6
-14 -10 1 -5 1 -64 1 -133 0 -106 2 -125 15 -125 9 0 26 12 38 26 l22 26 55
-28 c70 -35 167 -43 237 -20 86 29 143 109 143 201 0 121 -56 165 -297 235
-88 25 -123 60 -123 122 0 78 55 128 142 128 85 0 173 -82 201 -187 6 -24 17
-43 24 -43 10 0 13 30 13 130 0 123 -1 130 -20 130 -11 0 -20 -3 -20 -7 0 -5
-7 -16 -14 -26 -13 -16 -16 -16 -61 9 -53 30 -155 41 -213 23z"/>
<path d="M10661 2405 c-39 -52 -66 -97 -61 -100 13 -8 18 -4 112 67 83 64 93
79 78 109 -23 42 -54 24 -129 -76z"/>
<path d="M6190 2470 c0 -17 7 -20 39 -20 76 0 71 23 71 -320 0 -343 5 -320
-72 -320 -32 0 -39 -3 -36 -17 3 -17 22 -18 218 -18 184 0 223 3 268 19 177
61 200 241 41 321 -26 14 -55 25 -64 25 -27 0 -16 16 23 33 61 27 92 67 101
129 8 64 -5 96 -60 140 -48 39 -113 48 -341 48 -181 0 -188 -1 -188 -20z m380
-31 c71 -15 92 -49 88 -141 -5 -103 -50 -138 -178 -138 l-70 0 0 139 c0 124 2
140 18 144 32 9 91 7 142 -4z m48 -336 c57 -29 77 -64 77 -137 0 -113 -37
-147 -172 -154 -58 -3 -88 -1 -98 8 -12 10 -15 40 -15 155 0 78 2 144 4 146
12 12 172 -2 204 -18z"/>
<path d="M8770 2470 c0 -15 7 -20 26 -20 14 0 34 -5 45 -10 18 -10 19 -24 19
-310 0 -286 -1 -300 -19 -310 -11 -5 -32 -10 -46 -10 -20 0 -26 -4 -23 -17 3
-16 17 -18 133 -18 108 0 130 2 130 15 0 8 -9 16 -20 18 -11 1 -30 5 -42 8
l-23 4 0 335 0 335 -90 0 c-83 0 -90 -1 -90 -20z"/>
<path d="M8020 2381 c0 -37 -31 -111 -56 -133 -11 -9 -32 -21 -47 -27 -42 -16
-32 -45 16 -49 l37 -3 0 -170 c0 -98 4 -179 10 -190 29 -53 146 -65 195 -19
28 26 59 99 53 126 -7 36 -31 20 -43 -29 -15 -57 -34 -79 -69 -79 -53 0 -56
10 -56 193 l0 168 68 3 c61 3 67 5 70 26 3 21 0 22 -67 22 l-71 0 0 95 c0 88
-1 95 -20 95 -15 0 -20 -7 -20 -29z"/>
<path d="M4915 2225 c-53 -14 -115 -69 -115 -103 0 -29 29 -62 55 -62 33 0 58
28 50 54 -4 12 -7 30 -8 40 -4 49 112 59 159 15 21 -20 24 -31 22 -74 l-3 -50
-52 -7 c-158 -23 -256 -101 -239 -191 10 -53 46 -80 115 -85 70 -5 116 8 155
45 25 23 29 24 38 9 31 -55 104 -74 147 -38 28 23 14 50 -17 33 -16 -9 -24 -8
-36 5 -13 12 -16 44 -17 165 -2 182 1 162 -31 203 -21 26 -40 37 -78 45 -63
14 -82 13 -145 -4z m165 -268 c0 -93 -56 -157 -137 -157 -61 0 -94 86 -52 137
21 25 128 68 182 72 4 1 7 -23 7 -52z"/>
<path d="M5388 2233 c-49 -3 -58 -7 -58 -23 0 -13 8 -20 27 -22 45 -5 53 -36
53 -200 0 -159 -6 -178 -56 -178 -17 0 -24 -5 -24 -20 0 -19 7 -20 115 -20
104 0 115 2 115 18 0 12 -11 21 -32 27 l-33 10 -3 115 c-4 132 8 179 51 216
35 29 94 32 126 7 30 -25 40 -79 41 -215 0 -106 -2 -118 -19 -128 -11 -5 -29
-10 -41 -10 -15 0 -20 -5 -18 -17 3 -16 18 -18 121 -21 112 -3 117 -2 117 18
0 14 -7 20 -22 20 -43 0 -46 9 -50 165 -4 161 -11 187 -63 235 -52 48 -192 23
-226 -42 -13 -25 -21 -18 -28 29 -7 41 -7 41 -93 36z"/>
<path d="M7070 2229 c-49 -10 -83 -31 -114 -72 -26 -35 -13 -77 27 -91 51 -18
82 22 56 71 -20 37 7 57 76 57 70 1 105 -29 112 -97 5 -44 4 -46 -23 -52 -151
-32 -217 -59 -258 -104 -23 -25 -32 -92 -16 -120 6 -12 26 -31 43 -41 60 -37
193 -18 236 34 13 15 17 14 44 -20 28 -34 33 -36 74 -31 53 6 78 24 62 43 -8
10 -16 11 -29 4 -14 -7 -23 -6 -34 6 -13 13 -16 43 -16 175 l0 159 -32 36
c-46 50 -108 63 -208 43z m156 -234 c4 -8 3 -36 -1 -62 -5 -38 -16 -57 -50
-90 -35 -36 -49 -43 -80 -43 -51 0 -75 23 -75 72 0 70 26 94 132 122 68 19 68
19 74 1z"/>
<path d="M7723 2225 c-34 -14 -78 -72 -88 -117 -12 -47 -20 -31 -20 39 l0 68
-80 0 c-73 0 -80 -2 -80 -20 0 -16 8 -21 40 -25 l40 -5 3 -172 c3 -192 9 -174
-63 -185 -11 -2 -20 -10 -20 -18 0 -12 24 -15 143 -18 137 -2 142 -2 142 18 0
17 -6 20 -43 20 -24 0 -48 5 -55 12 -14 14 -16 137 -3 188 6 19 15 54 21 78
10 40 62 112 81 112 5 0 6 -18 3 -39 -5 -31 -2 -43 15 -60 26 -26 45 -27 71
-1 36 36 25 102 -21 125 -34 18 -45 18 -86 0z"/>
<path d="M8430 2228 c-115 -32 -180 -179 -140 -317 38 -132 176 -188 301 -123
45 23 59 37 83 85 24 46 29 68 28 125 0 83 -18 128 -71 180 -57 55 -125 72
-201 50z m109 -43 c58 -29 85 -153 61 -270 -16 -78 -52 -115 -110 -115 -78 0
-120 70 -120 200 0 79 12 125 42 158 40 43 81 51 127 27z"/>
<path d="M9244 2231 c-134 -34 -200 -201 -138 -351 51 -122 220 -161 324 -73
64 53 96 176 71 269 -12 45 -69 117 -110 138 -35 18 -108 27 -147 17z m123
-62 c30 -29 44 -84 44 -170 0 -92 -15 -142 -52 -173 -60 -50 -143 -20 -170 62
-19 57 -16 190 6 236 36 75 117 96 172 45z"/>
<path d="M9845 2225 c-22 -8 -52 -29 -66 -46 l-26 -32 -7 37 -7 37 -67 -3
c-59 -3 -67 -5 -67 -23 0 -12 8 -21 20 -23 43 -8 45 -18 45 -183 0 -146 -1
-159 -19 -169 -11 -5 -29 -10 -41 -10 -15 0 -20 -5 -18 -17 3 -16 17 -18 118
-18 101 0 115 2 118 18 2 12 -3 17 -18 17 -12 0 -30 5 -41 10 -17 10 -19 22
-19 118 0 123 10 169 46 212 34 40 89 42 125 4 22 -24 24 -33 28 -171 3 -132
2 -148 -15 -160 -10 -7 -29 -13 -42 -13 -17 0 -23 -5 -20 -17 3 -16 17 -18
118 -18 101 0 115 2 118 18 3 12 -3 17 -22 17 -47 0 -56 21 -56 139 0 115 13
165 53 209 29 32 86 30 118 -4 23 -24 24 -33 27 -168 4 -156 -2 -176 -54 -176
-17 0 -24 -5 -24 -20 0 -19 7 -20 120 -20 113 0 120 1 120 20 0 14 -7 20 -22
20 -43 0 -46 9 -49 171 -4 150 -5 157 -31 197 -51 76 -149 79 -219 7 -19 -19
-37 -35 -41 -35 -4 0 -15 14 -23 31 -16 30 -67 59 -102 59 -10 -1 -36 -7 -58
-15z"/>
<path d="M10595 2226 c-49 -18 -111 -85 -125 -135 -13 -49 -13 -150 2 -192 52
-153 253 -188 356 -63 57 69 33 90 -27 25 -81 -87 -208 -67 -240 38 -6 21 -11
50 -11 64 l0 26 157 3 c181 3 177 1 148 91 -20 62 -56 112 -94 131 -44 23
-120 28 -166 12z m123 -46 c35 -21 52 -54 52 -99 0 -44 -15 -51 -122 -51 l-98
0 0 33 c0 43 28 93 65 117 38 25 62 25 103 0z"/>
</g>
</svg>
